G04 #@! TF.FileFunction,Soldermask,Bot*
%FSLAX46Y46*%
G04 Gerber Fmt 4.6, Leading zero omitted, Abs format (unit mm)*
G04 Created by KiCad (PCBNEW 4.0.2-stable) date 8/9/2016 1:23:03 AM*
%MOMM*%
G01*
G04 APERTURE LIST*
%ADD10C,0.100000*%
%ADD11C,1.924000*%
%ADD12C,3.448000*%
%ADD13R,2.127200X2.127200*%
%ADD14O,2.127200X2.127200*%
G04 APERTURE END LIST*
D10*
D11*
X125095000Y-104775000D03*
X123190000Y-106045000D03*
X125095000Y-107315000D03*
X123190000Y-108585000D03*
X125095000Y-109855000D03*
X123190000Y-111125000D03*
X125095000Y-112395000D03*
X123190000Y-113665000D03*
X125095000Y-114935000D03*
X123190000Y-116205000D03*
X125095000Y-117475000D03*
X123190000Y-118745000D03*
X125095000Y-120015000D03*
X123190000Y-121285000D03*
X125095000Y-122555000D03*
X125095000Y-125095000D03*
X125095000Y-127635000D03*
X125095000Y-130175000D03*
X123190000Y-123825000D03*
X123190000Y-126365000D03*
X123190000Y-128905000D03*
X123190000Y-131445000D03*
X125095000Y-132715000D03*
X123190000Y-133985000D03*
X125095000Y-135255000D03*
X123190000Y-136525000D03*
X125095000Y-137795000D03*
X123190000Y-139065000D03*
X125095000Y-140335000D03*
X123190000Y-141605000D03*
X125095000Y-142875000D03*
X123190000Y-144145000D03*
X125095000Y-145415000D03*
X123190000Y-146685000D03*
X121285000Y-104775000D03*
X119380000Y-106045000D03*
X121285000Y-107315000D03*
X119380000Y-108585000D03*
X121285000Y-109855000D03*
X119380000Y-111125000D03*
X121285000Y-112395000D03*
X119380000Y-113665000D03*
X121285000Y-114935000D03*
X119380000Y-116205000D03*
X121285000Y-117475000D03*
X119380000Y-118745000D03*
X121285000Y-120015000D03*
X119380000Y-121285000D03*
X121285000Y-122555000D03*
X119380000Y-123825000D03*
X121285000Y-125095000D03*
X119380000Y-126365000D03*
X121285000Y-127635000D03*
X119380000Y-128905000D03*
X121285000Y-130175000D03*
X119380000Y-131445000D03*
X121285000Y-132715000D03*
X119380000Y-133985000D03*
X121285000Y-135255000D03*
X119380000Y-136525000D03*
X121285000Y-137795000D03*
X119380000Y-139065000D03*
X121285000Y-140335000D03*
X119380000Y-141605000D03*
X121285000Y-142875000D03*
X119380000Y-144145000D03*
X121285000Y-145415000D03*
X119380000Y-146685000D03*
X149225000Y-104775000D03*
X151130000Y-106045000D03*
X149225000Y-107315000D03*
X151130000Y-108585000D03*
X149225000Y-109855000D03*
X151130000Y-111125000D03*
X149225000Y-112395000D03*
X151130000Y-113665000D03*
X149225000Y-114935000D03*
X151130000Y-116205000D03*
X149225000Y-117475000D03*
X151130000Y-118745000D03*
X149225000Y-120015000D03*
X151130000Y-121285000D03*
X149225000Y-122555000D03*
X151130000Y-123825000D03*
X149225000Y-125095000D03*
X151130000Y-126365000D03*
X149225000Y-127635000D03*
X151130000Y-128905000D03*
X149225000Y-130175000D03*
X151130000Y-131445000D03*
X149225000Y-132715000D03*
X151130000Y-133985000D03*
X149225000Y-135255000D03*
X151130000Y-136525000D03*
X149225000Y-137795000D03*
X151130000Y-139065000D03*
X149225000Y-140335000D03*
X151130000Y-141605000D03*
X149225000Y-142875000D03*
X151130000Y-144145000D03*
X149225000Y-145415000D03*
X151130000Y-146685000D03*
X153035000Y-104775000D03*
X154940000Y-106045000D03*
X153035000Y-107315000D03*
X154940000Y-108585000D03*
X153035000Y-109855000D03*
X154940000Y-111125000D03*
X153035000Y-112395000D03*
X154940000Y-113665000D03*
X153035000Y-114935000D03*
X154940000Y-116205000D03*
X153035000Y-117475000D03*
X154940000Y-118745000D03*
X153035000Y-120015000D03*
X154940000Y-121285000D03*
X153035000Y-122555000D03*
X154940000Y-123825000D03*
X153035000Y-125095000D03*
X154940000Y-126365000D03*
X153035000Y-127635000D03*
X154940000Y-128905000D03*
X153035000Y-130175000D03*
X154940000Y-131445000D03*
X153035000Y-132715000D03*
X154940000Y-133985000D03*
X153035000Y-135255000D03*
X154940000Y-136525000D03*
X153035000Y-137795000D03*
X154940000Y-139065000D03*
X153035000Y-140335000D03*
X154940000Y-141605000D03*
X153035000Y-142875000D03*
X154940000Y-144145000D03*
X153035000Y-145415000D03*
X154940000Y-146685000D03*
D12*
X153035000Y-154686000D03*
X121285000Y-154686000D03*
X121285000Y-96774000D03*
X153035000Y-96774000D03*
D13*
X135890000Y-102235000D03*
D14*
X138430000Y-102235000D03*
X135890000Y-104775000D03*
X138430000Y-104775000D03*
X135890000Y-107315000D03*
X138430000Y-107315000D03*
X135890000Y-109855000D03*
X138430000Y-109855000D03*
X135890000Y-112395000D03*
X138430000Y-112395000D03*
X135890000Y-114935000D03*
X138430000Y-114935000D03*
X135890000Y-117475000D03*
X138430000Y-117475000D03*
X135890000Y-120015000D03*
X138430000Y-120015000D03*
X135890000Y-122555000D03*
X138430000Y-122555000D03*
X135890000Y-125095000D03*
X138430000Y-125095000D03*
X135890000Y-127635000D03*
X138430000Y-127635000D03*
X135890000Y-130175000D03*
X138430000Y-130175000D03*
X135890000Y-132715000D03*
X138430000Y-132715000D03*
X135890000Y-135255000D03*
X138430000Y-135255000D03*
X135890000Y-137795000D03*
X138430000Y-137795000D03*
X135890000Y-140335000D03*
X138430000Y-140335000D03*
X135890000Y-142875000D03*
X138430000Y-142875000D03*
X135890000Y-145415000D03*
X138430000Y-145415000D03*
X135890000Y-147955000D03*
X138430000Y-147955000D03*
X135890000Y-150495000D03*
X138430000Y-150495000D03*
M02*
