G04 #@! TF.FileFunction,Legend,Top*
%FSLAX46Y46*%
G04 Gerber Fmt 4.6, Leading zero omitted, Abs format (unit mm)*
G04 Created by KiCad (PCBNEW 4.0.2-stable) date 8/9/2016 1:23:03 AM*
%MOMM*%
G01*
G04 APERTURE LIST*
%ADD10C,0.100000*%
%ADD11C,0.150000*%
G04 APERTURE END LIST*
D10*
D11*
X118110000Y-103505000D02*
X126365000Y-103505000D01*
X126365000Y-103505000D02*
X126365000Y-147955000D01*
X126365000Y-147955000D02*
X118110000Y-147955000D01*
X118110000Y-147955000D02*
X118110000Y-103505000D01*
X147955000Y-103505000D02*
X156210000Y-103505000D01*
X156210000Y-103505000D02*
X156210000Y-147955000D01*
X156210000Y-147955000D02*
X147955000Y-147955000D01*
X147955000Y-147955000D02*
X147955000Y-103505000D01*
X155321000Y-154686000D02*
G75*
G03X155321000Y-154686000I-2286000J0D01*
G01*
X123571000Y-154686000D02*
G75*
G03X123571000Y-154686000I-2286000J0D01*
G01*
X123571000Y-96774000D02*
G75*
G03X123571000Y-96774000I-2286000J0D01*
G01*
X155321000Y-96774000D02*
G75*
G03X155321000Y-96774000I-2286000J0D01*
G01*
X139700000Y-151765000D02*
X139700000Y-100965000D01*
X134620000Y-103505000D02*
X134620000Y-151765000D01*
X139700000Y-151765000D02*
X134620000Y-151765000D01*
X139700000Y-100965000D02*
X137160000Y-100965000D01*
X135890000Y-100685000D02*
X134340000Y-100685000D01*
X137160000Y-100965000D02*
X137160000Y-103505000D01*
X137160000Y-103505000D02*
X134620000Y-103505000D01*
X134340000Y-100685000D02*
X134340000Y-102235000D01*
X121586667Y-148677381D02*
X121586667Y-149391667D01*
X121539047Y-149534524D01*
X121443809Y-149629762D01*
X121300952Y-149677381D01*
X121205714Y-149677381D01*
X122586667Y-149677381D02*
X122015238Y-149677381D01*
X122300952Y-149677381D02*
X122300952Y-148677381D01*
X122205714Y-148820238D01*
X122110476Y-148915476D01*
X122015238Y-148963095D01*
X152066667Y-148677381D02*
X152066667Y-149391667D01*
X152019047Y-149534524D01*
X151923809Y-149629762D01*
X151780952Y-149677381D01*
X151685714Y-149677381D01*
X152495238Y-148772619D02*
X152542857Y-148725000D01*
X152638095Y-148677381D01*
X152876191Y-148677381D01*
X152971429Y-148725000D01*
X153019048Y-148772619D01*
X153066667Y-148867857D01*
X153066667Y-148963095D01*
X153019048Y-149105952D01*
X152447619Y-149677381D01*
X153066667Y-149677381D01*
X135556667Y-96587381D02*
X135556667Y-97301667D01*
X135509047Y-97444524D01*
X135413809Y-97539762D01*
X135270952Y-97587381D01*
X135175714Y-97587381D01*
X135937619Y-96587381D02*
X136556667Y-96587381D01*
X136223333Y-96968333D01*
X136366191Y-96968333D01*
X136461429Y-97015952D01*
X136509048Y-97063571D01*
X136556667Y-97158810D01*
X136556667Y-97396905D01*
X136509048Y-97492143D01*
X136461429Y-97539762D01*
X136366191Y-97587381D01*
X136080476Y-97587381D01*
X135985238Y-97539762D01*
X135937619Y-97492143D01*
X141383048Y-150661667D02*
X141859239Y-150661667D01*
X141287810Y-150947381D02*
X141621143Y-149947381D01*
X141954477Y-150947381D01*
X142287810Y-150947381D02*
X142287810Y-149947381D01*
X142525905Y-151042619D02*
X143287810Y-151042619D01*
X144049715Y-149995000D02*
X143954477Y-149947381D01*
X143811620Y-149947381D01*
X143668762Y-149995000D01*
X143573524Y-150090238D01*
X143525905Y-150185476D01*
X143478286Y-150375952D01*
X143478286Y-150518810D01*
X143525905Y-150709286D01*
X143573524Y-150804524D01*
X143668762Y-150899762D01*
X143811620Y-150947381D01*
X143906858Y-150947381D01*
X144049715Y-150899762D01*
X144097334Y-150852143D01*
X144097334Y-150518810D01*
X143906858Y-150518810D01*
X144525905Y-150947381D02*
X144525905Y-149947381D01*
X145097334Y-150947381D01*
X145097334Y-149947381D01*
X145573524Y-150947381D02*
X145573524Y-149947381D01*
X145811619Y-149947381D01*
X145954477Y-149995000D01*
X146049715Y-150090238D01*
X146097334Y-150185476D01*
X146144953Y-150375952D01*
X146144953Y-150518810D01*
X146097334Y-150709286D01*
X146049715Y-150804524D01*
X145954477Y-150899762D01*
X145811619Y-150947381D01*
X145573524Y-150947381D01*
X141771905Y-147756571D02*
X141438571Y-147756571D01*
X141438571Y-148280381D02*
X141438571Y-147280381D01*
X141914762Y-147280381D01*
X142152857Y-147280381D02*
X142724286Y-147280381D01*
X142438571Y-148280381D02*
X142438571Y-147280381D01*
X143629048Y-148280381D02*
X143295714Y-147804190D01*
X143057619Y-148280381D02*
X143057619Y-147280381D01*
X143438572Y-147280381D01*
X143533810Y-147328000D01*
X143581429Y-147375619D01*
X143629048Y-147470857D01*
X143629048Y-147613714D01*
X143581429Y-147708952D01*
X143533810Y-147756571D01*
X143438572Y-147804190D01*
X143057619Y-147804190D01*
X144057619Y-147280381D02*
X144057619Y-148089905D01*
X144105238Y-148185143D01*
X144152857Y-148232762D01*
X144248095Y-148280381D01*
X144438572Y-148280381D01*
X144533810Y-148232762D01*
X144581429Y-148185143D01*
X144629048Y-148089905D01*
X144629048Y-147280381D01*
X145629048Y-148280381D02*
X145057619Y-148280381D01*
X145343333Y-148280381D02*
X145343333Y-147280381D01*
X145248095Y-147423238D01*
X145152857Y-147518476D01*
X145057619Y-147566095D01*
X141414667Y-145581667D02*
X141890858Y-145581667D01*
X141319429Y-145867381D02*
X141652762Y-144867381D01*
X141986096Y-145867381D01*
X142319429Y-145867381D02*
X142319429Y-144867381D01*
X142557524Y-145962619D02*
X143319429Y-145962619D01*
X143605143Y-145867381D02*
X143795619Y-145867381D01*
X143890858Y-145819762D01*
X143938477Y-145772143D01*
X144033715Y-145629286D01*
X144081334Y-145438810D01*
X144081334Y-145057857D01*
X144033715Y-144962619D01*
X143986096Y-144915000D01*
X143890858Y-144867381D01*
X143700381Y-144867381D01*
X143605143Y-144915000D01*
X143557524Y-144962619D01*
X143509905Y-145057857D01*
X143509905Y-145295952D01*
X143557524Y-145391190D01*
X143605143Y-145438810D01*
X143700381Y-145486429D01*
X143890858Y-145486429D01*
X143986096Y-145438810D01*
X144033715Y-145391190D01*
X144081334Y-145295952D01*
X141771905Y-142803571D02*
X141438571Y-142803571D01*
X141438571Y-143327381D02*
X141438571Y-142327381D01*
X141914762Y-142327381D01*
X142152857Y-142327381D02*
X142724286Y-142327381D01*
X142438571Y-143327381D02*
X142438571Y-142327381D01*
X143629048Y-143327381D02*
X143295714Y-142851190D01*
X143057619Y-143327381D02*
X143057619Y-142327381D01*
X143438572Y-142327381D01*
X143533810Y-142375000D01*
X143581429Y-142422619D01*
X143629048Y-142517857D01*
X143629048Y-142660714D01*
X143581429Y-142755952D01*
X143533810Y-142803571D01*
X143438572Y-142851190D01*
X143057619Y-142851190D01*
X144057619Y-142327381D02*
X144057619Y-143136905D01*
X144105238Y-143232143D01*
X144152857Y-143279762D01*
X144248095Y-143327381D01*
X144438572Y-143327381D01*
X144533810Y-143279762D01*
X144581429Y-143232143D01*
X144629048Y-143136905D01*
X144629048Y-142327381D01*
X145057619Y-142422619D02*
X145105238Y-142375000D01*
X145200476Y-142327381D01*
X145438572Y-142327381D01*
X145533810Y-142375000D01*
X145581429Y-142422619D01*
X145629048Y-142517857D01*
X145629048Y-142613095D01*
X145581429Y-142755952D01*
X145010000Y-143327381D01*
X145629048Y-143327381D01*
X141740143Y-140263571D02*
X141406809Y-140263571D01*
X141406809Y-140787381D02*
X141406809Y-139787381D01*
X141883000Y-139787381D01*
X142121095Y-139787381D02*
X142692524Y-139787381D01*
X142406809Y-140787381D02*
X142406809Y-139787381D01*
X143502048Y-140787381D02*
X143025857Y-140787381D01*
X143025857Y-139787381D01*
X143835381Y-139787381D02*
X143835381Y-140596905D01*
X143883000Y-140692143D01*
X143930619Y-140739762D01*
X144025857Y-140787381D01*
X144216334Y-140787381D01*
X144311572Y-140739762D01*
X144359191Y-140692143D01*
X144406810Y-140596905D01*
X144406810Y-139787381D01*
X145311572Y-140120714D02*
X145311572Y-140787381D01*
X145073476Y-139739762D02*
X144835381Y-140454048D01*
X145454429Y-140454048D01*
X141279904Y-137247381D02*
X141279904Y-138056905D01*
X141327523Y-138152143D01*
X141375142Y-138199762D01*
X141470380Y-138247381D01*
X141660857Y-138247381D01*
X141756095Y-138199762D01*
X141803714Y-138152143D01*
X141851333Y-138056905D01*
X141851333Y-137247381D01*
X142327523Y-137580714D02*
X142327523Y-138580714D01*
X142327523Y-137628333D02*
X142422761Y-137580714D01*
X142613238Y-137580714D01*
X142708476Y-137628333D01*
X142756095Y-137675952D01*
X142803714Y-137771190D01*
X142803714Y-138056905D01*
X142756095Y-138152143D01*
X142708476Y-138199762D01*
X142613238Y-138247381D01*
X142422761Y-138247381D01*
X142327523Y-138199762D01*
X143613238Y-138199762D02*
X143518000Y-138247381D01*
X143327523Y-138247381D01*
X143232285Y-138199762D01*
X143184666Y-138104524D01*
X143184666Y-137723571D01*
X143232285Y-137628333D01*
X143327523Y-137580714D01*
X143518000Y-137580714D01*
X143613238Y-137628333D01*
X143660857Y-137723571D01*
X143660857Y-137818810D01*
X143184666Y-137914048D01*
X144518000Y-138247381D02*
X144518000Y-137247381D01*
X144518000Y-138199762D02*
X144422762Y-138247381D01*
X144232285Y-138247381D01*
X144137047Y-138199762D01*
X144089428Y-138152143D01*
X144041809Y-138056905D01*
X144041809Y-137771190D01*
X144089428Y-137675952D01*
X144137047Y-137628333D01*
X144232285Y-137580714D01*
X144422762Y-137580714D01*
X144518000Y-137628333D01*
X145422762Y-138247381D02*
X145422762Y-137723571D01*
X145375143Y-137628333D01*
X145279905Y-137580714D01*
X145089428Y-137580714D01*
X144994190Y-137628333D01*
X145422762Y-138199762D02*
X145327524Y-138247381D01*
X145089428Y-138247381D01*
X144994190Y-138199762D01*
X144946571Y-138104524D01*
X144946571Y-138009286D01*
X144994190Y-137914048D01*
X145089428Y-137866429D01*
X145327524Y-137866429D01*
X145422762Y-137818810D01*
X146041809Y-138247381D02*
X145946571Y-138199762D01*
X145898952Y-138104524D01*
X145898952Y-137247381D01*
X146898953Y-138247381D02*
X146422762Y-138247381D01*
X146422762Y-137247381D01*
X141771905Y-135183571D02*
X141438571Y-135183571D01*
X141438571Y-135707381D02*
X141438571Y-134707381D01*
X141914762Y-134707381D01*
X142152857Y-134707381D02*
X142724286Y-134707381D01*
X142438571Y-135707381D02*
X142438571Y-134707381D01*
X143629048Y-135707381D02*
X143295714Y-135231190D01*
X143057619Y-135707381D02*
X143057619Y-134707381D01*
X143438572Y-134707381D01*
X143533810Y-134755000D01*
X143581429Y-134802619D01*
X143629048Y-134897857D01*
X143629048Y-135040714D01*
X143581429Y-135135952D01*
X143533810Y-135183571D01*
X143438572Y-135231190D01*
X143057619Y-135231190D01*
X144057619Y-134707381D02*
X144057619Y-135516905D01*
X144105238Y-135612143D01*
X144152857Y-135659762D01*
X144248095Y-135707381D01*
X144438572Y-135707381D01*
X144533810Y-135659762D01*
X144581429Y-135612143D01*
X144629048Y-135516905D01*
X144629048Y-134707381D01*
X145010000Y-134707381D02*
X145629048Y-134707381D01*
X145295714Y-135088333D01*
X145438572Y-135088333D01*
X145533810Y-135135952D01*
X145581429Y-135183571D01*
X145629048Y-135278810D01*
X145629048Y-135516905D01*
X145581429Y-135612143D01*
X145533810Y-135659762D01*
X145438572Y-135707381D01*
X145152857Y-135707381D01*
X145057619Y-135659762D01*
X145010000Y-135612143D01*
X141359238Y-132167381D02*
X141359238Y-132976905D01*
X141406857Y-133072143D01*
X141454476Y-133119762D01*
X141549714Y-133167381D01*
X141740191Y-133167381D01*
X141835429Y-133119762D01*
X141883048Y-133072143D01*
X141930667Y-132976905D01*
X141930667Y-132167381D01*
X142978286Y-133072143D02*
X142930667Y-133119762D01*
X142787810Y-133167381D01*
X142692572Y-133167381D01*
X142549714Y-133119762D01*
X142454476Y-133024524D01*
X142406857Y-132929286D01*
X142359238Y-132738810D01*
X142359238Y-132595952D01*
X142406857Y-132405476D01*
X142454476Y-132310238D01*
X142549714Y-132215000D01*
X142692572Y-132167381D01*
X142787810Y-132167381D01*
X142930667Y-132215000D01*
X142978286Y-132262619D01*
X143406857Y-133167381D02*
X143406857Y-132500714D01*
X143406857Y-132691190D02*
X143454476Y-132595952D01*
X143502095Y-132548333D01*
X143597333Y-132500714D01*
X143692572Y-132500714D01*
X144454477Y-133167381D02*
X144454477Y-132643571D01*
X144406858Y-132548333D01*
X144311620Y-132500714D01*
X144121143Y-132500714D01*
X144025905Y-132548333D01*
X144454477Y-133119762D02*
X144359239Y-133167381D01*
X144121143Y-133167381D01*
X144025905Y-133119762D01*
X143978286Y-133024524D01*
X143978286Y-132929286D01*
X144025905Y-132834048D01*
X144121143Y-132786429D01*
X144359239Y-132786429D01*
X144454477Y-132738810D01*
X144930667Y-132500714D02*
X144930667Y-133167381D01*
X144930667Y-132595952D02*
X144978286Y-132548333D01*
X145073524Y-132500714D01*
X145216382Y-132500714D01*
X145311620Y-132548333D01*
X145359239Y-132643571D01*
X145359239Y-133167381D01*
X145835429Y-133167381D02*
X145835429Y-132167381D01*
X145930667Y-132786429D02*
X146216382Y-133167381D01*
X146216382Y-132500714D02*
X145835429Y-132881667D01*
X142406905Y-130103571D02*
X142073571Y-130103571D01*
X142073571Y-130627381D02*
X142073571Y-129627381D01*
X142549762Y-129627381D01*
X142787857Y-129627381D02*
X143359286Y-129627381D01*
X143073571Y-130627381D02*
X143073571Y-129627381D01*
X144264048Y-130627381D02*
X143930714Y-130151190D01*
X143692619Y-130627381D02*
X143692619Y-129627381D01*
X144073572Y-129627381D01*
X144168810Y-129675000D01*
X144216429Y-129722619D01*
X144264048Y-129817857D01*
X144264048Y-129960714D01*
X144216429Y-130055952D01*
X144168810Y-130103571D01*
X144073572Y-130151190D01*
X143692619Y-130151190D01*
X144692619Y-129627381D02*
X144692619Y-130436905D01*
X144740238Y-130532143D01*
X144787857Y-130579762D01*
X144883095Y-130627381D01*
X145073572Y-130627381D01*
X145168810Y-130579762D01*
X145216429Y-130532143D01*
X145264048Y-130436905D01*
X145264048Y-129627381D01*
X146216429Y-129627381D02*
X145740238Y-129627381D01*
X145692619Y-130103571D01*
X145740238Y-130055952D01*
X145835476Y-130008333D01*
X146073572Y-130008333D01*
X146168810Y-130055952D01*
X146216429Y-130103571D01*
X146264048Y-130198810D01*
X146264048Y-130436905D01*
X146216429Y-130532143D01*
X146168810Y-130579762D01*
X146073572Y-130627381D01*
X145835476Y-130627381D01*
X145740238Y-130579762D01*
X145692619Y-130532143D01*
X141518000Y-127674667D02*
X141994191Y-127674667D01*
X141422762Y-127960381D02*
X141756095Y-126960381D01*
X142089429Y-127960381D01*
X142613238Y-126960381D02*
X142708477Y-126960381D01*
X142803715Y-127008000D01*
X142851334Y-127055619D01*
X142898953Y-127150857D01*
X142946572Y-127341333D01*
X142946572Y-127579429D01*
X142898953Y-127769905D01*
X142851334Y-127865143D01*
X142803715Y-127912762D01*
X142708477Y-127960381D01*
X142613238Y-127960381D01*
X142518000Y-127912762D01*
X142470381Y-127865143D01*
X142422762Y-127769905D01*
X142375143Y-127579429D01*
X142375143Y-127341333D01*
X142422762Y-127150857D01*
X142470381Y-127055619D01*
X142518000Y-127008000D01*
X142613238Y-126960381D01*
X143137048Y-128055619D02*
X143898953Y-128055619D01*
X144660858Y-127008000D02*
X144565620Y-126960381D01*
X144422763Y-126960381D01*
X144279905Y-127008000D01*
X144184667Y-127103238D01*
X144137048Y-127198476D01*
X144089429Y-127388952D01*
X144089429Y-127531810D01*
X144137048Y-127722286D01*
X144184667Y-127817524D01*
X144279905Y-127912762D01*
X144422763Y-127960381D01*
X144518001Y-127960381D01*
X144660858Y-127912762D01*
X144708477Y-127865143D01*
X144708477Y-127531810D01*
X144518001Y-127531810D01*
X145137048Y-127293714D02*
X145137048Y-127960381D01*
X145137048Y-127388952D02*
X145184667Y-127341333D01*
X145279905Y-127293714D01*
X145422763Y-127293714D01*
X145518001Y-127341333D01*
X145565620Y-127436571D01*
X145565620Y-127960381D01*
X146470382Y-127960381D02*
X146470382Y-126960381D01*
X146470382Y-127912762D02*
X146375144Y-127960381D01*
X146184667Y-127960381D01*
X146089429Y-127912762D01*
X146041810Y-127865143D01*
X145994191Y-127769905D01*
X145994191Y-127484190D01*
X146041810Y-127388952D01*
X146089429Y-127341333D01*
X146184667Y-127293714D01*
X146375144Y-127293714D01*
X146470382Y-127341333D01*
X141629095Y-125261667D02*
X142105286Y-125261667D01*
X141533857Y-125547381D02*
X141867190Y-124547381D01*
X142200524Y-125547381D01*
X142533857Y-125547381D02*
X142533857Y-124547381D01*
X142914810Y-124547381D01*
X143010048Y-124595000D01*
X143057667Y-124642619D01*
X143105286Y-124737857D01*
X143105286Y-124880714D01*
X143057667Y-124975952D01*
X143010048Y-125023571D01*
X142914810Y-125071190D01*
X142533857Y-125071190D01*
X143867191Y-125023571D02*
X143533857Y-125023571D01*
X143533857Y-125547381D02*
X143533857Y-124547381D01*
X144010048Y-124547381D01*
X144391000Y-125547381D02*
X144391000Y-124547381D01*
X144629095Y-125642619D02*
X145391000Y-125642619D01*
X145819571Y-124547381D02*
X145914810Y-124547381D01*
X146010048Y-124595000D01*
X146057667Y-124642619D01*
X146105286Y-124737857D01*
X146152905Y-124928333D01*
X146152905Y-125166429D01*
X146105286Y-125356905D01*
X146057667Y-125452143D01*
X146010048Y-125499762D01*
X145914810Y-125547381D01*
X145819571Y-125547381D01*
X145724333Y-125499762D01*
X145676714Y-125452143D01*
X145629095Y-125356905D01*
X145581476Y-125166429D01*
X145581476Y-124928333D01*
X145629095Y-124737857D01*
X145676714Y-124642619D01*
X145724333Y-124595000D01*
X145819571Y-124547381D01*
X142057619Y-123007381D02*
X142057619Y-122007381D01*
X142438572Y-122007381D01*
X142533810Y-122055000D01*
X142581429Y-122102619D01*
X142629048Y-122197857D01*
X142629048Y-122340714D01*
X142581429Y-122435952D01*
X142533810Y-122483571D01*
X142438572Y-122531190D01*
X142057619Y-122531190D01*
X143248095Y-122007381D02*
X143343334Y-122007381D01*
X143438572Y-122055000D01*
X143486191Y-122102619D01*
X143533810Y-122197857D01*
X143581429Y-122388333D01*
X143581429Y-122626429D01*
X143533810Y-122816905D01*
X143486191Y-122912143D01*
X143438572Y-122959762D01*
X143343334Y-123007381D01*
X143248095Y-123007381D01*
X143152857Y-122959762D01*
X143105238Y-122912143D01*
X143057619Y-122816905D01*
X143010000Y-122626429D01*
X143010000Y-122388333D01*
X143057619Y-122197857D01*
X143105238Y-122102619D01*
X143152857Y-122055000D01*
X143248095Y-122007381D01*
X144010000Y-122912143D02*
X144057619Y-122959762D01*
X144010000Y-123007381D01*
X143962381Y-122959762D01*
X144010000Y-122912143D01*
X144010000Y-123007381D01*
X145010000Y-123007381D02*
X144438571Y-123007381D01*
X144724285Y-123007381D02*
X144724285Y-122007381D01*
X144629047Y-122150238D01*
X144533809Y-122245476D01*
X144438571Y-122293095D01*
X142057619Y-120467381D02*
X142057619Y-119467381D01*
X142438572Y-119467381D01*
X142533810Y-119515000D01*
X142581429Y-119562619D01*
X142629048Y-119657857D01*
X142629048Y-119800714D01*
X142581429Y-119895952D01*
X142533810Y-119943571D01*
X142438572Y-119991190D01*
X142057619Y-119991190D01*
X143248095Y-119467381D02*
X143343334Y-119467381D01*
X143438572Y-119515000D01*
X143486191Y-119562619D01*
X143533810Y-119657857D01*
X143581429Y-119848333D01*
X143581429Y-120086429D01*
X143533810Y-120276905D01*
X143486191Y-120372143D01*
X143438572Y-120419762D01*
X143343334Y-120467381D01*
X143248095Y-120467381D01*
X143152857Y-120419762D01*
X143105238Y-120372143D01*
X143057619Y-120276905D01*
X143010000Y-120086429D01*
X143010000Y-119848333D01*
X143057619Y-119657857D01*
X143105238Y-119562619D01*
X143152857Y-119515000D01*
X143248095Y-119467381D01*
X144010000Y-120372143D02*
X144057619Y-120419762D01*
X144010000Y-120467381D01*
X143962381Y-120419762D01*
X144010000Y-120372143D01*
X144010000Y-120467381D01*
X144390952Y-119467381D02*
X145010000Y-119467381D01*
X144676666Y-119848333D01*
X144819524Y-119848333D01*
X144914762Y-119895952D01*
X144962381Y-119943571D01*
X145010000Y-120038810D01*
X145010000Y-120276905D01*
X144962381Y-120372143D01*
X144914762Y-120419762D01*
X144819524Y-120467381D01*
X144533809Y-120467381D01*
X144438571Y-120419762D01*
X144390952Y-120372143D01*
X142049762Y-117403571D02*
X142383096Y-117403571D01*
X142525953Y-117927381D02*
X142049762Y-117927381D01*
X142049762Y-116927381D01*
X142525953Y-116927381D01*
X142954524Y-117260714D02*
X142954524Y-117927381D01*
X142954524Y-117355952D02*
X143002143Y-117308333D01*
X143097381Y-117260714D01*
X143240239Y-117260714D01*
X143335477Y-117308333D01*
X143383096Y-117403571D01*
X143383096Y-117927381D01*
X144287858Y-117879762D02*
X144192620Y-117927381D01*
X144002143Y-117927381D01*
X143906905Y-117879762D01*
X143859286Y-117832143D01*
X143811667Y-117736905D01*
X143811667Y-117451190D01*
X143859286Y-117355952D01*
X143906905Y-117308333D01*
X144002143Y-117260714D01*
X144192620Y-117260714D01*
X144287858Y-117308333D01*
X145287858Y-117927381D02*
X144954524Y-117451190D01*
X144716429Y-117927381D02*
X144716429Y-116927381D01*
X145097382Y-116927381D01*
X145192620Y-116975000D01*
X145240239Y-117022619D01*
X145287858Y-117117857D01*
X145287858Y-117260714D01*
X145240239Y-117355952D01*
X145192620Y-117403571D01*
X145097382Y-117451190D01*
X144716429Y-117451190D01*
X146049763Y-117403571D02*
X146192620Y-117451190D01*
X146240239Y-117498810D01*
X146287858Y-117594048D01*
X146287858Y-117736905D01*
X146240239Y-117832143D01*
X146192620Y-117879762D01*
X146097382Y-117927381D01*
X145716429Y-117927381D01*
X145716429Y-116927381D01*
X146049763Y-116927381D01*
X146145001Y-116975000D01*
X146192620Y-117022619D01*
X146240239Y-117117857D01*
X146240239Y-117213095D01*
X146192620Y-117308333D01*
X146145001Y-117355952D01*
X146049763Y-117403571D01*
X145716429Y-117403571D01*
X142073571Y-114863571D02*
X142406905Y-114863571D01*
X142549762Y-115387381D02*
X142073571Y-115387381D01*
X142073571Y-114387381D01*
X142549762Y-114387381D01*
X142978333Y-114720714D02*
X142978333Y-115387381D01*
X142978333Y-114815952D02*
X143025952Y-114768333D01*
X143121190Y-114720714D01*
X143264048Y-114720714D01*
X143359286Y-114768333D01*
X143406905Y-114863571D01*
X143406905Y-115387381D01*
X144311667Y-115339762D02*
X144216429Y-115387381D01*
X144025952Y-115387381D01*
X143930714Y-115339762D01*
X143883095Y-115292143D01*
X143835476Y-115196905D01*
X143835476Y-114911190D01*
X143883095Y-114815952D01*
X143930714Y-114768333D01*
X144025952Y-114720714D01*
X144216429Y-114720714D01*
X144311667Y-114768333D01*
X145311667Y-115292143D02*
X145264048Y-115339762D01*
X145121191Y-115387381D01*
X145025953Y-115387381D01*
X144883095Y-115339762D01*
X144787857Y-115244524D01*
X144740238Y-115149286D01*
X144692619Y-114958810D01*
X144692619Y-114815952D01*
X144740238Y-114625476D01*
X144787857Y-114530238D01*
X144883095Y-114435000D01*
X145025953Y-114387381D01*
X145121191Y-114387381D01*
X145264048Y-114435000D01*
X145311667Y-114482619D01*
X145645000Y-114387381D02*
X146311667Y-114387381D01*
X145645000Y-115387381D01*
X146311667Y-115387381D01*
X142216428Y-112323571D02*
X142549762Y-112323571D01*
X142692619Y-112847381D02*
X142216428Y-112847381D01*
X142216428Y-111847381D01*
X142692619Y-111847381D01*
X143121190Y-112180714D02*
X143121190Y-112847381D01*
X143121190Y-112275952D02*
X143168809Y-112228333D01*
X143264047Y-112180714D01*
X143406905Y-112180714D01*
X143502143Y-112228333D01*
X143549762Y-112323571D01*
X143549762Y-112847381D01*
X144454524Y-112799762D02*
X144359286Y-112847381D01*
X144168809Y-112847381D01*
X144073571Y-112799762D01*
X144025952Y-112752143D01*
X143978333Y-112656905D01*
X143978333Y-112371190D01*
X144025952Y-112275952D01*
X144073571Y-112228333D01*
X144168809Y-112180714D01*
X144359286Y-112180714D01*
X144454524Y-112228333D01*
X145359286Y-112847381D02*
X144883095Y-112847381D01*
X144883095Y-111847381D01*
X145645000Y-112561667D02*
X146121191Y-112561667D01*
X145549762Y-112847381D02*
X145883095Y-111847381D01*
X146216429Y-112847381D01*
X126301905Y-150661667D02*
X126778096Y-150661667D01*
X126206667Y-150947381D02*
X126540000Y-149947381D01*
X126873334Y-150947381D01*
X127206667Y-150947381D02*
X127206667Y-149947381D01*
X127444762Y-151042619D02*
X128206667Y-151042619D01*
X128397143Y-150899762D02*
X128540000Y-150947381D01*
X128778096Y-150947381D01*
X128873334Y-150899762D01*
X128920953Y-150852143D01*
X128968572Y-150756905D01*
X128968572Y-150661667D01*
X128920953Y-150566429D01*
X128873334Y-150518810D01*
X128778096Y-150471190D01*
X128587619Y-150423571D01*
X128492381Y-150375952D01*
X128444762Y-150328333D01*
X128397143Y-150233095D01*
X128397143Y-150137857D01*
X128444762Y-150042619D01*
X128492381Y-149995000D01*
X128587619Y-149947381D01*
X128825715Y-149947381D01*
X128968572Y-149995000D01*
X129397143Y-150423571D02*
X129730477Y-150423571D01*
X129873334Y-150947381D02*
X129397143Y-150947381D01*
X129397143Y-149947381D01*
X129873334Y-149947381D01*
X130301905Y-150947381D02*
X130301905Y-149947381D01*
X130873334Y-150947381D01*
X130873334Y-149947381D01*
X131301905Y-150899762D02*
X131444762Y-150947381D01*
X131682858Y-150947381D01*
X131778096Y-150899762D01*
X131825715Y-150852143D01*
X131873334Y-150756905D01*
X131873334Y-150661667D01*
X131825715Y-150566429D01*
X131778096Y-150518810D01*
X131682858Y-150471190D01*
X131492381Y-150423571D01*
X131397143Y-150375952D01*
X131349524Y-150328333D01*
X131301905Y-150233095D01*
X131301905Y-150137857D01*
X131349524Y-150042619D01*
X131397143Y-149995000D01*
X131492381Y-149947381D01*
X131730477Y-149947381D01*
X131873334Y-149995000D01*
X132301905Y-150423571D02*
X132635239Y-150423571D01*
X132778096Y-150947381D02*
X132301905Y-150947381D01*
X132301905Y-149947381D01*
X132778096Y-149947381D01*
X128532143Y-147883571D02*
X128198809Y-147883571D01*
X128198809Y-148407381D02*
X128198809Y-147407381D01*
X128675000Y-147407381D01*
X128913095Y-147407381D02*
X129484524Y-147407381D01*
X129198809Y-148407381D02*
X129198809Y-147407381D01*
X130294048Y-148407381D02*
X129817857Y-148407381D01*
X129817857Y-147407381D01*
X130627381Y-147407381D02*
X130627381Y-148216905D01*
X130675000Y-148312143D01*
X130722619Y-148359762D01*
X130817857Y-148407381D01*
X131008334Y-148407381D01*
X131103572Y-148359762D01*
X131151191Y-148312143D01*
X131198810Y-148216905D01*
X131198810Y-147407381D01*
X132198810Y-148407381D02*
X131627381Y-148407381D01*
X131913095Y-148407381D02*
X131913095Y-147407381D01*
X131817857Y-147550238D01*
X131722619Y-147645476D01*
X131627381Y-147693095D01*
X128532143Y-145343571D02*
X128198809Y-145343571D01*
X128198809Y-145867381D02*
X128198809Y-144867381D01*
X128675000Y-144867381D01*
X128913095Y-144867381D02*
X129484524Y-144867381D01*
X129198809Y-145867381D02*
X129198809Y-144867381D01*
X130294048Y-145867381D02*
X129817857Y-145867381D01*
X129817857Y-144867381D01*
X130627381Y-144867381D02*
X130627381Y-145676905D01*
X130675000Y-145772143D01*
X130722619Y-145819762D01*
X130817857Y-145867381D01*
X131008334Y-145867381D01*
X131103572Y-145819762D01*
X131151191Y-145772143D01*
X131198810Y-145676905D01*
X131198810Y-144867381D01*
X131627381Y-144962619D02*
X131675000Y-144915000D01*
X131770238Y-144867381D01*
X132008334Y-144867381D01*
X132103572Y-144915000D01*
X132151191Y-144962619D01*
X132198810Y-145057857D01*
X132198810Y-145153095D01*
X132151191Y-145295952D01*
X131579762Y-145867381D01*
X132198810Y-145867381D01*
X128532143Y-142803571D02*
X128198809Y-142803571D01*
X128198809Y-143327381D02*
X128198809Y-142327381D01*
X128675000Y-142327381D01*
X128913095Y-142327381D02*
X129484524Y-142327381D01*
X129198809Y-143327381D02*
X129198809Y-142327381D01*
X130294048Y-143327381D02*
X129817857Y-143327381D01*
X129817857Y-142327381D01*
X130627381Y-142327381D02*
X130627381Y-143136905D01*
X130675000Y-143232143D01*
X130722619Y-143279762D01*
X130817857Y-143327381D01*
X131008334Y-143327381D01*
X131103572Y-143279762D01*
X131151191Y-143232143D01*
X131198810Y-143136905D01*
X131198810Y-142327381D01*
X131579762Y-142327381D02*
X132198810Y-142327381D01*
X131865476Y-142708333D01*
X132008334Y-142708333D01*
X132103572Y-142755952D01*
X132151191Y-142803571D01*
X132198810Y-142898810D01*
X132198810Y-143136905D01*
X132151191Y-143232143D01*
X132103572Y-143279762D01*
X132008334Y-143327381D01*
X131722619Y-143327381D01*
X131627381Y-143279762D01*
X131579762Y-143232143D01*
X127341666Y-139787381D02*
X127341666Y-140596905D01*
X127389285Y-140692143D01*
X127436904Y-140739762D01*
X127532142Y-140787381D01*
X127722619Y-140787381D01*
X127817857Y-140739762D01*
X127865476Y-140692143D01*
X127913095Y-140596905D01*
X127913095Y-139787381D01*
X128389285Y-140120714D02*
X128389285Y-141120714D01*
X128389285Y-140168333D02*
X128484523Y-140120714D01*
X128675000Y-140120714D01*
X128770238Y-140168333D01*
X128817857Y-140215952D01*
X128865476Y-140311190D01*
X128865476Y-140596905D01*
X128817857Y-140692143D01*
X128770238Y-140739762D01*
X128675000Y-140787381D01*
X128484523Y-140787381D01*
X128389285Y-140739762D01*
X129675000Y-140739762D02*
X129579762Y-140787381D01*
X129389285Y-140787381D01*
X129294047Y-140739762D01*
X129246428Y-140644524D01*
X129246428Y-140263571D01*
X129294047Y-140168333D01*
X129389285Y-140120714D01*
X129579762Y-140120714D01*
X129675000Y-140168333D01*
X129722619Y-140263571D01*
X129722619Y-140358810D01*
X129246428Y-140454048D01*
X130579762Y-140787381D02*
X130579762Y-139787381D01*
X130579762Y-140739762D02*
X130484524Y-140787381D01*
X130294047Y-140787381D01*
X130198809Y-140739762D01*
X130151190Y-140692143D01*
X130103571Y-140596905D01*
X130103571Y-140311190D01*
X130151190Y-140215952D01*
X130198809Y-140168333D01*
X130294047Y-140120714D01*
X130484524Y-140120714D01*
X130579762Y-140168333D01*
X131484524Y-140787381D02*
X131484524Y-140263571D01*
X131436905Y-140168333D01*
X131341667Y-140120714D01*
X131151190Y-140120714D01*
X131055952Y-140168333D01*
X131484524Y-140739762D02*
X131389286Y-140787381D01*
X131151190Y-140787381D01*
X131055952Y-140739762D01*
X131008333Y-140644524D01*
X131008333Y-140549286D01*
X131055952Y-140454048D01*
X131151190Y-140406429D01*
X131389286Y-140406429D01*
X131484524Y-140358810D01*
X132103571Y-140787381D02*
X132008333Y-140739762D01*
X131960714Y-140644524D01*
X131960714Y-139787381D01*
X133055953Y-140787381D02*
X132722619Y-140311190D01*
X132484524Y-140787381D02*
X132484524Y-139787381D01*
X132865477Y-139787381D01*
X132960715Y-139835000D01*
X133008334Y-139882619D01*
X133055953Y-139977857D01*
X133055953Y-140120714D01*
X133008334Y-140215952D01*
X132960715Y-140263571D01*
X132865477Y-140311190D01*
X132484524Y-140311190D01*
X128532143Y-137723571D02*
X128198809Y-137723571D01*
X128198809Y-138247381D02*
X128198809Y-137247381D01*
X128675000Y-137247381D01*
X128913095Y-137247381D02*
X129484524Y-137247381D01*
X129198809Y-138247381D02*
X129198809Y-137247381D01*
X130294048Y-138247381D02*
X129817857Y-138247381D01*
X129817857Y-137247381D01*
X130627381Y-137247381D02*
X130627381Y-138056905D01*
X130675000Y-138152143D01*
X130722619Y-138199762D01*
X130817857Y-138247381D01*
X131008334Y-138247381D01*
X131103572Y-138199762D01*
X131151191Y-138152143D01*
X131198810Y-138056905D01*
X131198810Y-137247381D01*
X132151191Y-137247381D02*
X131675000Y-137247381D01*
X131627381Y-137723571D01*
X131675000Y-137675952D01*
X131770238Y-137628333D01*
X132008334Y-137628333D01*
X132103572Y-137675952D01*
X132151191Y-137723571D01*
X132198810Y-137818810D01*
X132198810Y-138056905D01*
X132151191Y-138152143D01*
X132103572Y-138199762D01*
X132008334Y-138247381D01*
X131770238Y-138247381D01*
X131675000Y-138199762D01*
X131627381Y-138152143D01*
X128436905Y-135183571D02*
X128103571Y-135183571D01*
X128103571Y-135707381D02*
X128103571Y-134707381D01*
X128579762Y-134707381D01*
X128817857Y-134707381D02*
X129389286Y-134707381D01*
X129103571Y-135707381D02*
X129103571Y-134707381D01*
X130294048Y-135707381D02*
X129960714Y-135231190D01*
X129722619Y-135707381D02*
X129722619Y-134707381D01*
X130103572Y-134707381D01*
X130198810Y-134755000D01*
X130246429Y-134802619D01*
X130294048Y-134897857D01*
X130294048Y-135040714D01*
X130246429Y-135135952D01*
X130198810Y-135183571D01*
X130103572Y-135231190D01*
X129722619Y-135231190D01*
X130722619Y-134707381D02*
X130722619Y-135516905D01*
X130770238Y-135612143D01*
X130817857Y-135659762D01*
X130913095Y-135707381D01*
X131103572Y-135707381D01*
X131198810Y-135659762D01*
X131246429Y-135612143D01*
X131294048Y-135516905D01*
X131294048Y-134707381D01*
X132198810Y-135040714D02*
X132198810Y-135707381D01*
X131960714Y-134659762D02*
X131722619Y-135374048D01*
X132341667Y-135374048D01*
X128532143Y-132643571D02*
X128198809Y-132643571D01*
X128198809Y-133167381D02*
X128198809Y-132167381D01*
X128675000Y-132167381D01*
X128913095Y-132167381D02*
X129484524Y-132167381D01*
X129198809Y-133167381D02*
X129198809Y-132167381D01*
X130294048Y-133167381D02*
X129817857Y-133167381D01*
X129817857Y-132167381D01*
X130627381Y-132167381D02*
X130627381Y-132976905D01*
X130675000Y-133072143D01*
X130722619Y-133119762D01*
X130817857Y-133167381D01*
X131008334Y-133167381D01*
X131103572Y-133119762D01*
X131151191Y-133072143D01*
X131198810Y-132976905D01*
X131198810Y-132167381D01*
X132103572Y-132167381D02*
X131913095Y-132167381D01*
X131817857Y-132215000D01*
X131770238Y-132262619D01*
X131675000Y-132405476D01*
X131627381Y-132595952D01*
X131627381Y-132976905D01*
X131675000Y-133072143D01*
X131722619Y-133119762D01*
X131817857Y-133167381D01*
X132008334Y-133167381D01*
X132103572Y-133119762D01*
X132151191Y-133072143D01*
X132198810Y-132976905D01*
X132198810Y-132738810D01*
X132151191Y-132643571D01*
X132103572Y-132595952D01*
X132008334Y-132548333D01*
X131817857Y-132548333D01*
X131722619Y-132595952D01*
X131675000Y-132643571D01*
X131627381Y-132738810D01*
X128436905Y-130103571D02*
X128103571Y-130103571D01*
X128103571Y-130627381D02*
X128103571Y-129627381D01*
X128579762Y-129627381D01*
X128817857Y-129627381D02*
X129389286Y-129627381D01*
X129103571Y-130627381D02*
X129103571Y-129627381D01*
X130294048Y-130627381D02*
X129960714Y-130151190D01*
X129722619Y-130627381D02*
X129722619Y-129627381D01*
X130103572Y-129627381D01*
X130198810Y-129675000D01*
X130246429Y-129722619D01*
X130294048Y-129817857D01*
X130294048Y-129960714D01*
X130246429Y-130055952D01*
X130198810Y-130103571D01*
X130103572Y-130151190D01*
X129722619Y-130151190D01*
X130722619Y-129627381D02*
X130722619Y-130436905D01*
X130770238Y-130532143D01*
X130817857Y-130579762D01*
X130913095Y-130627381D01*
X131103572Y-130627381D01*
X131198810Y-130579762D01*
X131246429Y-130532143D01*
X131294048Y-130436905D01*
X131294048Y-129627381D01*
X132198810Y-129627381D02*
X132008333Y-129627381D01*
X131913095Y-129675000D01*
X131865476Y-129722619D01*
X131770238Y-129865476D01*
X131722619Y-130055952D01*
X131722619Y-130436905D01*
X131770238Y-130532143D01*
X131817857Y-130579762D01*
X131913095Y-130627381D01*
X132103572Y-130627381D01*
X132198810Y-130579762D01*
X132246429Y-130532143D01*
X132294048Y-130436905D01*
X132294048Y-130198810D01*
X132246429Y-130103571D01*
X132198810Y-130055952D01*
X132103572Y-130008333D01*
X131913095Y-130008333D01*
X131817857Y-130055952D01*
X131770238Y-130103571D01*
X131722619Y-130198810D01*
X128555952Y-127801667D02*
X129032143Y-127801667D01*
X128460714Y-128087381D02*
X128794047Y-127087381D01*
X129127381Y-128087381D01*
X129651190Y-127087381D02*
X129841667Y-127087381D01*
X129936905Y-127135000D01*
X130032143Y-127230238D01*
X130079762Y-127420714D01*
X130079762Y-127754048D01*
X130032143Y-127944524D01*
X129936905Y-128039762D01*
X129841667Y-128087381D01*
X129651190Y-128087381D01*
X129555952Y-128039762D01*
X129460714Y-127944524D01*
X129413095Y-127754048D01*
X129413095Y-127420714D01*
X129460714Y-127230238D01*
X129555952Y-127135000D01*
X129651190Y-127087381D01*
X130270238Y-128182619D02*
X131032143Y-128182619D01*
X131794048Y-128087381D02*
X131222619Y-128087381D01*
X131508333Y-128087381D02*
X131508333Y-127087381D01*
X131413095Y-127230238D01*
X131317857Y-127325476D01*
X131222619Y-127373095D01*
X128722619Y-125547381D02*
X128722619Y-124547381D01*
X129103572Y-124547381D01*
X129198810Y-124595000D01*
X129246429Y-124642619D01*
X129294048Y-124737857D01*
X129294048Y-124880714D01*
X129246429Y-124975952D01*
X129198810Y-125023571D01*
X129103572Y-125071190D01*
X128722619Y-125071190D01*
X129913095Y-124547381D02*
X130008334Y-124547381D01*
X130103572Y-124595000D01*
X130151191Y-124642619D01*
X130198810Y-124737857D01*
X130246429Y-124928333D01*
X130246429Y-125166429D01*
X130198810Y-125356905D01*
X130151191Y-125452143D01*
X130103572Y-125499762D01*
X130008334Y-125547381D01*
X129913095Y-125547381D01*
X129817857Y-125499762D01*
X129770238Y-125452143D01*
X129722619Y-125356905D01*
X129675000Y-125166429D01*
X129675000Y-124928333D01*
X129722619Y-124737857D01*
X129770238Y-124642619D01*
X129817857Y-124595000D01*
X129913095Y-124547381D01*
X130675000Y-125452143D02*
X130722619Y-125499762D01*
X130675000Y-125547381D01*
X130627381Y-125499762D01*
X130675000Y-125452143D01*
X130675000Y-125547381D01*
X131579762Y-124880714D02*
X131579762Y-125547381D01*
X131341666Y-124499762D02*
X131103571Y-125214048D01*
X131722619Y-125214048D01*
X128722619Y-123007381D02*
X128722619Y-122007381D01*
X129103572Y-122007381D01*
X129198810Y-122055000D01*
X129246429Y-122102619D01*
X129294048Y-122197857D01*
X129294048Y-122340714D01*
X129246429Y-122435952D01*
X129198810Y-122483571D01*
X129103572Y-122531190D01*
X128722619Y-122531190D01*
X129913095Y-122007381D02*
X130008334Y-122007381D01*
X130103572Y-122055000D01*
X130151191Y-122102619D01*
X130198810Y-122197857D01*
X130246429Y-122388333D01*
X130246429Y-122626429D01*
X130198810Y-122816905D01*
X130151191Y-122912143D01*
X130103572Y-122959762D01*
X130008334Y-123007381D01*
X129913095Y-123007381D01*
X129817857Y-122959762D01*
X129770238Y-122912143D01*
X129722619Y-122816905D01*
X129675000Y-122626429D01*
X129675000Y-122388333D01*
X129722619Y-122197857D01*
X129770238Y-122102619D01*
X129817857Y-122055000D01*
X129913095Y-122007381D01*
X130675000Y-122912143D02*
X130722619Y-122959762D01*
X130675000Y-123007381D01*
X130627381Y-122959762D01*
X130675000Y-122912143D01*
X130675000Y-123007381D01*
X131579762Y-122007381D02*
X131389285Y-122007381D01*
X131294047Y-122055000D01*
X131246428Y-122102619D01*
X131151190Y-122245476D01*
X131103571Y-122435952D01*
X131103571Y-122816905D01*
X131151190Y-122912143D01*
X131198809Y-122959762D01*
X131294047Y-123007381D01*
X131484524Y-123007381D01*
X131579762Y-122959762D01*
X131627381Y-122912143D01*
X131675000Y-122816905D01*
X131675000Y-122578810D01*
X131627381Y-122483571D01*
X131579762Y-122435952D01*
X131484524Y-122388333D01*
X131294047Y-122388333D01*
X131198809Y-122435952D01*
X131151190Y-122483571D01*
X131103571Y-122578810D01*
X128175000Y-119943571D02*
X128508334Y-119943571D01*
X128651191Y-120467381D02*
X128175000Y-120467381D01*
X128175000Y-119467381D01*
X128651191Y-119467381D01*
X129079762Y-119800714D02*
X129079762Y-120467381D01*
X129079762Y-119895952D02*
X129127381Y-119848333D01*
X129222619Y-119800714D01*
X129365477Y-119800714D01*
X129460715Y-119848333D01*
X129508334Y-119943571D01*
X129508334Y-120467381D01*
X130413096Y-120419762D02*
X130317858Y-120467381D01*
X130127381Y-120467381D01*
X130032143Y-120419762D01*
X129984524Y-120372143D01*
X129936905Y-120276905D01*
X129936905Y-119991190D01*
X129984524Y-119895952D01*
X130032143Y-119848333D01*
X130127381Y-119800714D01*
X130317858Y-119800714D01*
X130413096Y-119848333D01*
X131317858Y-120467381D02*
X130841667Y-120467381D01*
X130841667Y-119467381D01*
X131984525Y-119943571D02*
X132127382Y-119991190D01*
X132175001Y-120038810D01*
X132222620Y-120134048D01*
X132222620Y-120276905D01*
X132175001Y-120372143D01*
X132127382Y-120419762D01*
X132032144Y-120467381D01*
X131651191Y-120467381D01*
X131651191Y-119467381D01*
X131984525Y-119467381D01*
X132079763Y-119515000D01*
X132127382Y-119562619D01*
X132175001Y-119657857D01*
X132175001Y-119753095D01*
X132127382Y-119848333D01*
X132079763Y-119895952D01*
X131984525Y-119943571D01*
X131651191Y-119943571D01*
X128151190Y-117403571D02*
X128484524Y-117403571D01*
X128627381Y-117927381D02*
X128151190Y-117927381D01*
X128151190Y-116927381D01*
X128627381Y-116927381D01*
X129055952Y-117260714D02*
X129055952Y-117927381D01*
X129055952Y-117355952D02*
X129103571Y-117308333D01*
X129198809Y-117260714D01*
X129341667Y-117260714D01*
X129436905Y-117308333D01*
X129484524Y-117403571D01*
X129484524Y-117927381D01*
X130389286Y-117879762D02*
X130294048Y-117927381D01*
X130103571Y-117927381D01*
X130008333Y-117879762D01*
X129960714Y-117832143D01*
X129913095Y-117736905D01*
X129913095Y-117451190D01*
X129960714Y-117355952D01*
X130008333Y-117308333D01*
X130103571Y-117260714D01*
X130294048Y-117260714D01*
X130389286Y-117308333D01*
X131389286Y-117832143D02*
X131341667Y-117879762D01*
X131198810Y-117927381D01*
X131103572Y-117927381D01*
X130960714Y-117879762D01*
X130865476Y-117784524D01*
X130817857Y-117689286D01*
X130770238Y-117498810D01*
X130770238Y-117355952D01*
X130817857Y-117165476D01*
X130865476Y-117070238D01*
X130960714Y-116975000D01*
X131103572Y-116927381D01*
X131198810Y-116927381D01*
X131341667Y-116975000D01*
X131389286Y-117022619D01*
X131770238Y-117641667D02*
X132246429Y-117641667D01*
X131675000Y-117927381D02*
X132008333Y-116927381D01*
X132341667Y-117927381D01*
X128079762Y-114863571D02*
X128413096Y-114863571D01*
X128555953Y-115387381D02*
X128079762Y-115387381D01*
X128079762Y-114387381D01*
X128555953Y-114387381D01*
X128984524Y-114720714D02*
X128984524Y-115387381D01*
X128984524Y-114815952D02*
X129032143Y-114768333D01*
X129127381Y-114720714D01*
X129270239Y-114720714D01*
X129365477Y-114768333D01*
X129413096Y-114863571D01*
X129413096Y-115387381D01*
X130317858Y-115339762D02*
X130222620Y-115387381D01*
X130032143Y-115387381D01*
X129936905Y-115339762D01*
X129889286Y-115292143D01*
X129841667Y-115196905D01*
X129841667Y-114911190D01*
X129889286Y-114815952D01*
X129936905Y-114768333D01*
X130032143Y-114720714D01*
X130222620Y-114720714D01*
X130317858Y-114768333D01*
X131317858Y-115292143D02*
X131270239Y-115339762D01*
X131127382Y-115387381D01*
X131032144Y-115387381D01*
X130889286Y-115339762D01*
X130794048Y-115244524D01*
X130746429Y-115149286D01*
X130698810Y-114958810D01*
X130698810Y-114815952D01*
X130746429Y-114625476D01*
X130794048Y-114530238D01*
X130889286Y-114435000D01*
X131032144Y-114387381D01*
X131127382Y-114387381D01*
X131270239Y-114435000D01*
X131317858Y-114482619D01*
X132079763Y-114863571D02*
X132222620Y-114911190D01*
X132270239Y-114958810D01*
X132317858Y-115054048D01*
X132317858Y-115196905D01*
X132270239Y-115292143D01*
X132222620Y-115339762D01*
X132127382Y-115387381D01*
X131746429Y-115387381D01*
X131746429Y-114387381D01*
X132079763Y-114387381D01*
X132175001Y-114435000D01*
X132222620Y-114482619D01*
X132270239Y-114577857D01*
X132270239Y-114673095D01*
X132222620Y-114768333D01*
X132175001Y-114815952D01*
X132079763Y-114863571D01*
X131746429Y-114863571D01*
X128841667Y-111847381D02*
X129175000Y-112847381D01*
X129508334Y-111847381D01*
X130413096Y-112752143D02*
X130365477Y-112799762D01*
X130222620Y-112847381D01*
X130127382Y-112847381D01*
X129984524Y-112799762D01*
X129889286Y-112704524D01*
X129841667Y-112609286D01*
X129794048Y-112418810D01*
X129794048Y-112275952D01*
X129841667Y-112085476D01*
X129889286Y-111990238D01*
X129984524Y-111895000D01*
X130127382Y-111847381D01*
X130222620Y-111847381D01*
X130365477Y-111895000D01*
X130413096Y-111942619D01*
X131413096Y-112752143D02*
X131365477Y-112799762D01*
X131222620Y-112847381D01*
X131127382Y-112847381D01*
X130984524Y-112799762D01*
X130889286Y-112704524D01*
X130841667Y-112609286D01*
X130794048Y-112418810D01*
X130794048Y-112275952D01*
X130841667Y-112085476D01*
X130889286Y-111990238D01*
X130984524Y-111895000D01*
X131127382Y-111847381D01*
X131222620Y-111847381D01*
X131365477Y-111895000D01*
X131413096Y-111942619D01*
X127563809Y-109783571D02*
X127897143Y-109783571D01*
X128040000Y-110307381D02*
X127563809Y-110307381D01*
X127563809Y-109307381D01*
X128040000Y-109307381D01*
X128468571Y-109640714D02*
X128468571Y-110307381D01*
X128468571Y-109735952D02*
X128516190Y-109688333D01*
X128611428Y-109640714D01*
X128754286Y-109640714D01*
X128849524Y-109688333D01*
X128897143Y-109783571D01*
X128897143Y-110307381D01*
X129801905Y-110259762D02*
X129706667Y-110307381D01*
X129516190Y-110307381D01*
X129420952Y-110259762D01*
X129373333Y-110212143D01*
X129325714Y-110116905D01*
X129325714Y-109831190D01*
X129373333Y-109735952D01*
X129420952Y-109688333D01*
X129516190Y-109640714D01*
X129706667Y-109640714D01*
X129801905Y-109688333D01*
X130706667Y-110307381D02*
X130230476Y-110307381D01*
X130230476Y-109307381D01*
X130944762Y-109307381D02*
X131611429Y-109307381D01*
X130944762Y-110307381D01*
X131611429Y-110307381D01*
X127770190Y-107243571D02*
X128103524Y-107243571D01*
X128246381Y-107767381D02*
X127770190Y-107767381D01*
X127770190Y-106767381D01*
X128246381Y-106767381D01*
X128674952Y-107100714D02*
X128674952Y-107767381D01*
X128674952Y-107195952D02*
X128722571Y-107148333D01*
X128817809Y-107100714D01*
X128960667Y-107100714D01*
X129055905Y-107148333D01*
X129103524Y-107243571D01*
X129103524Y-107767381D01*
X130008286Y-107719762D02*
X129913048Y-107767381D01*
X129722571Y-107767381D01*
X129627333Y-107719762D01*
X129579714Y-107672143D01*
X129532095Y-107576905D01*
X129532095Y-107291190D01*
X129579714Y-107195952D01*
X129627333Y-107148333D01*
X129722571Y-107100714D01*
X129913048Y-107100714D01*
X130008286Y-107148333D01*
X131008286Y-107767381D02*
X130674952Y-107291190D01*
X130436857Y-107767381D02*
X130436857Y-106767381D01*
X130817810Y-106767381D01*
X130913048Y-106815000D01*
X130960667Y-106862619D01*
X131008286Y-106957857D01*
X131008286Y-107100714D01*
X130960667Y-107195952D01*
X130913048Y-107243571D01*
X130817810Y-107291190D01*
X130436857Y-107291190D01*
X131389238Y-107481667D02*
X131865429Y-107481667D01*
X131294000Y-107767381D02*
X131627333Y-106767381D01*
X131960667Y-107767381D01*
X142359286Y-110307381D02*
X142359286Y-109307381D01*
X142740239Y-109307381D01*
X142835477Y-109355000D01*
X142883096Y-109402619D01*
X142930715Y-109497857D01*
X142930715Y-109640714D01*
X142883096Y-109735952D01*
X142835477Y-109783571D01*
X142740239Y-109831190D01*
X142359286Y-109831190D01*
X143692620Y-109783571D02*
X143359286Y-109783571D01*
X143359286Y-110307381D02*
X143359286Y-109307381D01*
X143835477Y-109307381D01*
X144216429Y-110307381D02*
X144216429Y-109307381D01*
X145930715Y-109307381D02*
X145454524Y-109307381D01*
X145406905Y-109783571D01*
X145454524Y-109735952D01*
X145549762Y-109688333D01*
X145787858Y-109688333D01*
X145883096Y-109735952D01*
X145930715Y-109783571D01*
X145978334Y-109878810D01*
X145978334Y-110116905D01*
X145930715Y-110212143D01*
X145883096Y-110259762D01*
X145787858Y-110307381D01*
X145549762Y-110307381D01*
X145454524Y-110259762D01*
X145406905Y-110212143D01*
X142359286Y-107767381D02*
X142359286Y-106767381D01*
X142740239Y-106767381D01*
X142835477Y-106815000D01*
X142883096Y-106862619D01*
X142930715Y-106957857D01*
X142930715Y-107100714D01*
X142883096Y-107195952D01*
X142835477Y-107243571D01*
X142740239Y-107291190D01*
X142359286Y-107291190D01*
X143692620Y-107243571D02*
X143359286Y-107243571D01*
X143359286Y-107767381D02*
X143359286Y-106767381D01*
X143835477Y-106767381D01*
X144216429Y-107767381D02*
X144216429Y-106767381D01*
X145883096Y-106767381D02*
X145692619Y-106767381D01*
X145597381Y-106815000D01*
X145549762Y-106862619D01*
X145454524Y-107005476D01*
X145406905Y-107195952D01*
X145406905Y-107576905D01*
X145454524Y-107672143D01*
X145502143Y-107719762D01*
X145597381Y-107767381D01*
X145787858Y-107767381D01*
X145883096Y-107719762D01*
X145930715Y-107672143D01*
X145978334Y-107576905D01*
X145978334Y-107338810D01*
X145930715Y-107243571D01*
X145883096Y-107195952D01*
X145787858Y-107148333D01*
X145597381Y-107148333D01*
X145502143Y-107195952D01*
X145454524Y-107243571D01*
X145406905Y-107338810D01*
X142073571Y-104703571D02*
X142406905Y-104703571D01*
X142549762Y-105227381D02*
X142073571Y-105227381D01*
X142073571Y-104227381D01*
X142549762Y-104227381D01*
X142978333Y-104560714D02*
X142978333Y-105227381D01*
X142978333Y-104655952D02*
X143025952Y-104608333D01*
X143121190Y-104560714D01*
X143264048Y-104560714D01*
X143359286Y-104608333D01*
X143406905Y-104703571D01*
X143406905Y-105227381D01*
X144311667Y-105179762D02*
X144216429Y-105227381D01*
X144025952Y-105227381D01*
X143930714Y-105179762D01*
X143883095Y-105132143D01*
X143835476Y-105036905D01*
X143835476Y-104751190D01*
X143883095Y-104655952D01*
X143930714Y-104608333D01*
X144025952Y-104560714D01*
X144216429Y-104560714D01*
X144311667Y-104608333D01*
X145311667Y-105227381D02*
X144978333Y-104751190D01*
X144740238Y-105227381D02*
X144740238Y-104227381D01*
X145121191Y-104227381D01*
X145216429Y-104275000D01*
X145264048Y-104322619D01*
X145311667Y-104417857D01*
X145311667Y-104560714D01*
X145264048Y-104655952D01*
X145216429Y-104703571D01*
X145121191Y-104751190D01*
X144740238Y-104751190D01*
X145645000Y-104227381D02*
X146311667Y-104227381D01*
X145645000Y-105227381D01*
X146311667Y-105227381D01*
X142478333Y-102687381D02*
X142478333Y-101687381D01*
X142716428Y-101687381D01*
X142859286Y-101735000D01*
X142954524Y-101830238D01*
X143002143Y-101925476D01*
X143049762Y-102115952D01*
X143049762Y-102258810D01*
X143002143Y-102449286D01*
X142954524Y-102544524D01*
X142859286Y-102639762D01*
X142716428Y-102687381D01*
X142478333Y-102687381D01*
X144002143Y-101735000D02*
X143906905Y-101687381D01*
X143764048Y-101687381D01*
X143621190Y-101735000D01*
X143525952Y-101830238D01*
X143478333Y-101925476D01*
X143430714Y-102115952D01*
X143430714Y-102258810D01*
X143478333Y-102449286D01*
X143525952Y-102544524D01*
X143621190Y-102639762D01*
X143764048Y-102687381D01*
X143859286Y-102687381D01*
X144002143Y-102639762D01*
X144049762Y-102592143D01*
X144049762Y-102258810D01*
X143859286Y-102258810D01*
X144478333Y-102020714D02*
X144478333Y-102687381D01*
X144478333Y-102115952D02*
X144525952Y-102068333D01*
X144621190Y-102020714D01*
X144764048Y-102020714D01*
X144859286Y-102068333D01*
X144906905Y-102163571D01*
X144906905Y-102687381D01*
X145811667Y-102687381D02*
X145811667Y-101687381D01*
X145811667Y-102639762D02*
X145716429Y-102687381D01*
X145525952Y-102687381D01*
X145430714Y-102639762D01*
X145383095Y-102592143D01*
X145335476Y-102496905D01*
X145335476Y-102211190D01*
X145383095Y-102115952D01*
X145430714Y-102068333D01*
X145525952Y-102020714D01*
X145716429Y-102020714D01*
X145811667Y-102068333D01*
X127532095Y-105227381D02*
X127532095Y-104227381D01*
X127913048Y-104227381D01*
X128008286Y-104275000D01*
X128055905Y-104322619D01*
X128103524Y-104417857D01*
X128103524Y-104560714D01*
X128055905Y-104655952D01*
X128008286Y-104703571D01*
X127913048Y-104751190D01*
X127532095Y-104751190D01*
X128865429Y-104703571D02*
X128532095Y-104703571D01*
X128532095Y-105227381D02*
X128532095Y-104227381D01*
X129008286Y-104227381D01*
X129389238Y-105227381D02*
X129389238Y-104227381D01*
X131151143Y-105227381D02*
X130579714Y-105227381D01*
X130865428Y-105227381D02*
X130865428Y-104227381D01*
X130770190Y-104370238D01*
X130674952Y-104465476D01*
X130579714Y-104513095D01*
X132008286Y-104560714D02*
X132008286Y-105227381D01*
X131770190Y-104179762D02*
X131532095Y-104894048D01*
X132151143Y-104894048D01*
X127532095Y-102687381D02*
X127532095Y-101687381D01*
X127913048Y-101687381D01*
X128008286Y-101735000D01*
X128055905Y-101782619D01*
X128103524Y-101877857D01*
X128103524Y-102020714D01*
X128055905Y-102115952D01*
X128008286Y-102163571D01*
X127913048Y-102211190D01*
X127532095Y-102211190D01*
X128865429Y-102163571D02*
X128532095Y-102163571D01*
X128532095Y-102687381D02*
X128532095Y-101687381D01*
X129008286Y-101687381D01*
X129389238Y-102687381D02*
X129389238Y-101687381D01*
X131151143Y-102687381D02*
X130579714Y-102687381D01*
X130865428Y-102687381D02*
X130865428Y-101687381D01*
X130770190Y-101830238D01*
X130674952Y-101925476D01*
X130579714Y-101973095D01*
X131532095Y-101782619D02*
X131579714Y-101735000D01*
X131674952Y-101687381D01*
X131913048Y-101687381D01*
X132008286Y-101735000D01*
X132055905Y-101782619D01*
X132103524Y-101877857D01*
X132103524Y-101973095D01*
X132055905Y-102115952D01*
X131484476Y-102687381D01*
X132103524Y-102687381D01*
M02*
