M48
;DRILL file {KiCad 4.0.2-stable} date 8/9/2016 1:23:40 AM
;FORMAT={-:-/ absolute / inch / decimal}
FMAT,2
INCH,TZ
T1C0.013
T2C0.030
T3C0.040
T4C0.120
%
G90
G05
M72
T1
X6.1Y-4.475
T2
X4.7Y-4.175
X4.7Y-4.275
X4.7Y-4.375
X4.7Y-4.475
X4.7Y-4.575
X4.7Y-4.675
X4.7Y-4.775
X4.7Y-4.875
X4.7Y-4.975
X4.7Y-5.075
X4.7Y-5.175
X4.7Y-5.275
X4.7Y-5.375
X4.7Y-5.475
X4.7Y-5.575
X4.7Y-5.675
X4.7Y-5.775
X4.775Y-4.125
X4.775Y-4.225
X4.775Y-4.325
X4.775Y-4.425
X4.775Y-4.525
X4.775Y-4.625
X4.775Y-4.725
X4.775Y-4.825
X4.775Y-4.925
X4.775Y-5.025
X4.775Y-5.125
X4.775Y-5.225
X4.775Y-5.325
X4.775Y-5.425
X4.775Y-5.525
X4.775Y-5.625
X4.775Y-5.725
X4.85Y-4.175
X4.85Y-4.275
X4.85Y-4.375
X4.85Y-4.475
X4.85Y-4.575
X4.85Y-4.675
X4.85Y-4.775
X4.85Y-4.875
X4.85Y-4.975
X4.85Y-5.075
X4.85Y-5.175
X4.85Y-5.275
X4.85Y-5.375
X4.85Y-5.475
X4.85Y-5.575
X4.85Y-5.675
X4.85Y-5.775
X4.925Y-4.125
X4.925Y-4.225
X4.925Y-4.325
X4.925Y-4.425
X4.925Y-4.525
X4.925Y-4.625
X4.925Y-4.725
X4.925Y-4.825
X4.925Y-4.925
X4.925Y-5.025
X4.925Y-5.125
X4.925Y-5.225
X4.925Y-5.325
X4.925Y-5.425
X4.925Y-5.525
X4.925Y-5.625
X4.925Y-5.725
X5.875Y-4.125
X5.875Y-4.225
X5.875Y-4.325
X5.875Y-4.425
X5.875Y-4.525
X5.875Y-4.625
X5.875Y-4.725
X5.875Y-4.825
X5.875Y-4.925
X5.875Y-5.025
X5.875Y-5.125
X5.875Y-5.225
X5.875Y-5.325
X5.875Y-5.425
X5.875Y-5.525
X5.875Y-5.625
X5.875Y-5.725
X5.95Y-4.175
X5.95Y-4.275
X5.95Y-4.375
X5.95Y-4.475
X5.95Y-4.575
X5.95Y-4.675
X5.95Y-4.775
X5.95Y-4.875
X5.95Y-4.975
X5.95Y-5.075
X5.95Y-5.175
X5.95Y-5.275
X5.95Y-5.375
X5.95Y-5.475
X5.95Y-5.575
X5.95Y-5.675
X5.95Y-5.775
X6.025Y-4.125
X6.025Y-4.225
X6.025Y-4.325
X6.025Y-4.425
X6.025Y-4.525
X6.025Y-4.625
X6.025Y-4.725
X6.025Y-4.825
X6.025Y-4.925
X6.025Y-5.025
X6.025Y-5.125
X6.025Y-5.225
X6.025Y-5.325
X6.025Y-5.425
X6.025Y-5.525
X6.025Y-5.625
X6.025Y-5.725
X6.1Y-4.175
X6.1Y-4.275
X6.1Y-4.375
X6.1Y-4.475
X6.1Y-4.575
X6.1Y-4.675
X6.1Y-4.775
X6.1Y-4.875
X6.1Y-4.975
X6.1Y-5.075
X6.1Y-5.175
X6.1Y-5.275
X6.1Y-5.375
X6.1Y-5.475
X6.1Y-5.575
X6.1Y-5.675
X6.1Y-5.775
T3
X5.35Y-4.025
X5.35Y-4.125
X5.35Y-4.225
X5.35Y-4.325
X5.35Y-4.425
X5.35Y-4.525
X5.35Y-4.625
X5.35Y-4.725
X5.35Y-4.825
X5.35Y-4.925
X5.35Y-5.025
X5.35Y-5.125
X5.35Y-5.225
X5.35Y-5.325
X5.35Y-5.425
X5.35Y-5.525
X5.35Y-5.625
X5.35Y-5.725
X5.35Y-5.825
X5.35Y-5.925
X5.45Y-4.025
X5.45Y-4.125
X5.45Y-4.225
X5.45Y-4.325
X5.45Y-4.425
X5.45Y-4.525
X5.45Y-4.625
X5.45Y-4.725
X5.45Y-4.825
X5.45Y-4.925
X5.45Y-5.025
X5.45Y-5.125
X5.45Y-5.225
X5.45Y-5.325
X5.45Y-5.425
X5.45Y-5.525
X5.45Y-5.625
X5.45Y-5.725
X5.45Y-5.825
X5.45Y-5.925
T4
X4.775Y-3.81
X4.775Y-6.09
X6.025Y-3.81
X6.025Y-6.09
T0
M30
